{
    "asset" : {
        "generator" : "Khronos glTF Blender I/O v3.2.40",
        "version" : "2.0"
    },
    "scene" : 0,
    "scenes" : [
        {
            "name" : "Scene",
            "nodes" : [
                0,
                1,
                2,
                3
            ]
        }
    ],
    "nodes" : [
        {
            "mesh" : 0,
            "name" : "Cube",
            "rotation" : [
                0.7071068286895752,
                0,
                0,
                0.7071068286895752
            ],
            "translation" : [
                0,
                2.538689613342285,
                0
            ]
        },
        {
            "mesh" : 1,
            "name" : "Cylinder"
        },
        {
            "mesh" : 2,
            "name" : "Cylinder.001",
            "scale" : [
                0.10000002384185791,
                0.10000002384185791,
                0.10000002384185791
            ],
            "translation" : [
                -2.012998342514038,
                0.29887479543685913,
                0
            ]
        },
        {
            "mesh" : 3,
            "name" : "Cube.001",
            "scale" : [
                0.21945418417453766,
                0.20927858352661133,
                0.6062625646591187
            ],
            "translation" : [
                -1.2194266319274902,
                2.417365550994873,
                0
            ]
        }
    ],
    "materials" : [
        {
            "doubleSided" : true,
            "name" : "Material.001",
            "pbrMetallicRoughness" : {
                "baseColorFactor" : [
                    0.0011550268391147256,
                    0.021979041397571564,
                    0,
                    1
                ],
                "metallicFactor" : 0.34645670652389526,
                "roughnessFactor" : 0.4645669162273407
            }
        },
        {
            "doubleSided" : true,
            "name" : "Metal",
            "pbrMetallicRoughness" : {
                "baseColorFactor" : [
                    0.12370957434177399,
                    0.12370957434177399,
                    0.12370957434177399,
                    1
                ],
                "metallicFactor" : 0.6220472455024719,
                "roughnessFactor" : 0.4606299102306366
            }
        }
    ],
    "meshes" : [
        {
            "name" : "Cube",
            "primitives" : [
                {
                    "attributes" : {
                        "POSITION" : 0,
                        "NORMAL" : 1,
                        "TEXCOORD_0" : 2
                    },
                    "indices" : 3,
                    "material" : 0
                }
            ]
        },
        {
            "name" : "Cylinder.001",
            "primitives" : [
                {
                    "attributes" : {
                        "POSITION" : 4,
                        "NORMAL" : 5,
                        "TEXCOORD_0" : 6
                    },
                    "indices" : 7,
                    "material" : 0
                }
            ]
        },
        {
            "name" : "Cylinder.002",
            "primitives" : [
                {
                    "attributes" : {
                        "POSITION" : 8,
                        "NORMAL" : 9,
                        "TEXCOORD_0" : 10
                    },
                    "indices" : 11,
                    "material" : 1
                }
            ]
        },
        {
            "name" : "Cube.002",
            "primitives" : [
                {
                    "attributes" : {
                        "POSITION" : 12,
                        "NORMAL" : 13,
                        "TEXCOORD_0" : 14
                    },
                    "indices" : 15,
                    "material" : 1
                }
            ]
        }
    ],
    "accessors" : [
        {
            "bufferView" : 0,
            "componentType" : 5126,
            "count" : 384,
            "max" : [
                1,
                1,
                1
            ],
            "min" : [
                -1,
                -1,
                -3
            ],
            "type" : "VEC3"
        },
        {
            "bufferView" : 1,
            "componentType" : 5126,
            "count" : 384,
            "type" : "VEC3"
        },
        {
            "bufferView" : 2,
            "componentType" : 5126,
            "count" : 384,
            "type" : "VEC2"
        },
        {
            "bufferView" : 3,
            "componentType" : 5123,
            "count" : 948,
            "type" : "SCALAR"
        },
        {
            "bufferView" : 4,
            "componentType" : 5126,
            "count" : 192,
            "max" : [
                2.999999761581421,
                0.19999998807907104,
                3
            ],
            "min" : [
                -3.000000476837158,
                -0.19999998807907104,
                -3
            ],
            "type" : "VEC3"
        },
        {
            "bufferView" : 5,
            "componentType" : 5126,
            "count" : 192,
            "type" : "VEC3"
        },
        {
            "bufferView" : 6,
            "componentType" : 5126,
            "count" : 192,
            "type" : "VEC2"
        },
        {
            "bufferView" : 7,
            "componentType" : 5123,
            "count" : 372,
            "type" : "SCALAR"
        },
        {
            "bufferView" : 8,
            "componentType" : 5126,
            "count" : 640,
            "max" : [
                36.275474548339844,
                22.975645065307617,
                1.600000023841858
            ],
            "min" : [
                4.12114143371582,
                -1,
                -1.6000001430511475
            ],
            "type" : "VEC3"
        },
        {
            "bufferView" : 9,
            "componentType" : 5126,
            "count" : 640,
            "type" : "VEC3"
        },
        {
            "bufferView" : 10,
            "componentType" : 5126,
            "count" : 640,
            "type" : "VEC2"
        },
        {
            "bufferView" : 11,
            "componentType" : 5123,
            "count" : 1128,
            "type" : "SCALAR"
        },
        {
            "bufferView" : 12,
            "componentType" : 5126,
            "count" : 236,
            "max" : [
                12.99889087677002,
                1.0000019073486328,
                1.000000238418579
            ],
            "min" : [
                -1.8850575685501099,
                -2.5454294681549072,
                -1.000000238418579
            ],
            "type" : "VEC3"
        },
        {
            "bufferView" : 13,
            "componentType" : 5126,
            "count" : 236,
            "type" : "VEC3"
        },
        {
            "bufferView" : 14,
            "componentType" : 5126,
            "count" : 236,
            "type" : "VEC2"
        },
        {
            "bufferView" : 15,
            "componentType" : 5123,
            "count" : 360,
            "type" : "SCALAR"
        }
    ],
    "bufferViews" : [
        {
            "buffer" : 0,
            "byteLength" : 4608,
            "byteOffset" : 0
        },
        {
            "buffer" : 0,
            "byteLength" : 4608,
            "byteOffset" : 4608
        },
        {
            "buffer" : 0,
            "byteLength" : 3072,
            "byteOffset" : 9216
        },
        {
            "buffer" : 0,
            "byteLength" : 1896,
            "byteOffset" : 12288
        },
        {
            "buffer" : 0,
            "byteLength" : 2304,
            "byteOffset" : 14184
        },
        {
            "buffer" : 0,
            "byteLength" : 2304,
            "byteOffset" : 16488
        },
        {
            "buffer" : 0,
            "byteLength" : 1536,
            "byteOffset" : 18792
        },
        {
            "buffer" : 0,
            "byteLength" : 744,
            "byteOffset" : 20328
        },
        {
            "buffer" : 0,
            "byteLength" : 7680,
            "byteOffset" : 21072
        },
        {
            "buffer" : 0,
            "byteLength" : 7680,
            "byteOffset" : 28752
        },
        {
            "buffer" : 0,
            "byteLength" : 5120,
            "byteOffset" : 36432
        },
        {
            "buffer" : 0,
            "byteLength" : 2256,
            "byteOffset" : 41552
        },
        {
            "buffer" : 0,
            "byteLength" : 2832,
            "byteOffset" : 43808
        },
        {
            "buffer" : 0,
            "byteLength" : 2832,
            "byteOffset" : 46640
        },
        {
            "buffer" : 0,
            "byteLength" : 1888,
            "byteOffset" : 49472
        },
        {
            "buffer" : 0,
            "byteLength" : 720,
            "byteOffset" : 51360
        }
    ],
    "buffers" : [
        {
            "byteLength" : 52080,
            "uri" : "data:application/octet-stream;base64,"
        }
    ]
}
